<svg id="レイヤー_1" data-name="レイヤー 1" xmlns="http://www.w3.org/2000/svg" viewBox="0 0 241.69 45.07"><defs><style>.cls-1{fill:#150301;}.cls-2{fill:#f29600;}</style></defs><title>logo</title><polygon class="cls-1" points="85.4 43.07 102.84 43.07 102.84 38.28 90.16 38.28 90.16 32.51 102.84 32.51 102.84 27.76 90.16 27.76 90.16 21.95 102.84 21.95 102.84 17.16 85.4 17.16 85.4 43.07"/><path class="cls-1" d="M130.13,18.79H117.92V44.71h4.76V36.26h7.45a8.69,8.69,0,0,0,8.72-8.71,8.77,8.77,0,0,0-8.72-8.76Zm2.77,11.52a3.76,3.76,0,0,1-2.77,1.16h-7.45V23.58h7.45a3.77,3.77,0,0,1,2.77,1.16,3.81,3.81,0,0,1,1.16,2.81A3.75,3.75,0,0,1,132.9,30.31Z" transform="translate(-2.63 -1.63)"/><path class="cls-1" d="M159.92,18.79H147.71V44.71h4.75V36.26h7.46a8.71,8.71,0,0,0,8.72-8.71,8.77,8.77,0,0,0-8.72-8.76Zm2.76,11.52a3.73,3.73,0,0,1-2.76,1.16h-7.46V23.58h7.46a3.73,3.73,0,0,1,2.76,1.16,3.78,3.78,0,0,1,1.17,2.81A3.72,3.72,0,0,1,162.68,30.31Z" transform="translate(-2.63 -1.63)"/><path class="cls-1" d="M172.7,44.71H178l2.09-4.64H190.3l2.23,4.64h5.33L185.05,18.45Zm9.35-8.92,3-6.64,3.19,6.64Z" transform="translate(-2.63 -1.63)"/><path class="cls-1" d="M226.51,32.45a8.54,8.54,0,0,0,1.55-4.94,8.78,8.78,0,0,0-8.72-8.72h-13V44.71h4.75V36.26h6.73l4.9,8.45h5.5L223,35.46A8.59,8.59,0,0,0,226.51,32.45Zm-4.41-2.14a3.73,3.73,0,0,1-2.76,1.16l-8.21,0V23.58h8.21a3.93,3.93,0,0,1,2.76,6.73Z" transform="translate(-2.63 -1.63)"/><rect class="cls-1" x="236.94" y="17.16" width="4.75" height="25.91"/><path class="cls-1" d="M74.56,22.76a13.57,13.57,0,0,0-4.16-2.83,12.72,12.72,0,0,0-5.06-1H55.41V29.58h0v4.79h0V45.05h9.93a12.85,12.85,0,0,0,5.08-1,13.34,13.34,0,0,0,4.16-2.83A13.66,13.66,0,0,0,77.38,37a12.81,12.81,0,0,0,0-10.11A13.37,13.37,0,0,0,74.56,22.76ZM73,35.16a8.62,8.62,0,0,1-1.77,2.64,8.17,8.17,0,0,1-5.85,2.44H60.19V23.72h5.15a7.93,7.93,0,0,1,3.18.64A8.41,8.41,0,0,1,73,28.8a8.22,8.22,0,0,1,0,6.36Z" transform="translate(-2.63 -1.63)"/><path class="cls-2" d="M12.8,3.35l1.95,4.09c.4-.2.83-.37,1.25-.53L14.49,2.65A17.69,17.69,0,0,0,12.8,3.35Z" transform="translate(-2.63 -1.63)"/><path class="cls-2" d="M19.5,1.66l.23,4.51c.46,0,.92,0,1.37,0l.23-4.52A16,16,0,0,0,19.5,1.66Z" transform="translate(-2.63 -1.63)"/><path class="cls-2" d="M7.26,7.49l3.36,3c.3-.34.63-.66,1-1l-3-3.36C8.1,6.6,7.67,7,7.26,7.49Z" transform="translate(-2.63 -1.63)"/><path class="cls-2" d="M3.71,13.43,8,14.94a11.51,11.51,0,0,1,.52-1.26L4.42,11.73A16.92,16.92,0,0,0,3.71,13.43Z" transform="translate(-2.63 -1.63)"/><path class="cls-2" d="M36.43,11.71l-4.08,2a12.23,12.23,0,0,1,.52,1.25l4.27-1.52C36.93,12.83,36.69,12.26,36.43,11.71Z" transform="translate(-2.63 -1.63)"/><path class="cls-2" d="M32.29,6.18l-3,3.36c.34.31.66.63,1,1l3.35-3A17.44,17.44,0,0,0,32.29,6.18Z" transform="translate(-2.63 -1.63)"/><path class="cls-2" d="M24.84,6.91a12.39,12.39,0,0,1,1.26.52L28,3.34c-.55-.26-1.12-.49-1.7-.7Z" transform="translate(-2.63 -1.63)"/><path class="cls-2" d="M7.23,18.67l-4.51-.23q0,.46,0,.93h0q0,.45,0,.9L7.24,20A12.54,12.54,0,0,1,7.23,18.67Z" transform="translate(-2.63 -1.63)"/><path class="cls-2" d="M38.14,18.44l-4.52.23h0c0,.23,0,.46,0,.7h0c0,.22,0,.45,0,.67l4.52.23C38.17,19.66,38.17,19,38.14,18.44Z" transform="translate(-2.63 -1.63)"/><rect class="cls-2" x="3.4" y="26.02" width="28.81" height="14.01" rx="0.46"/><path class="cls-1" d="M34.38,24.25h-6V13.37H12.45V24.25h-6A3.85,3.85,0,0,0,2.63,28.1V41.2a3.85,3.85,0,0,0,3.85,3.85H7.67a1.67,1.67,0,0,0,3.34,0H29.85a1.67,1.67,0,0,0,3.33,0h1.2a3.85,3.85,0,0,0,3.85-3.85V28.1A3.86,3.86,0,0,0,34.38,24.25ZM15.83,16.74H25v7.51h-9.2Zm0,24.91v-14H25v14ZM6,41.2V28.1a.46.46,0,0,1,.46-.45h6v14h-6A.47.47,0,0,1,6,41.2Zm28.81,0a.46.46,0,0,1-.45.46h-6v-14h6a.45.45,0,0,1,.45.45Z" transform="translate(-2.63 -1.63)"/></svg>