<svg id="レイヤー_1" data-name="レイヤー 1" xmlns="http://www.w3.org/2000/svg" viewBox="0 0 151.81 151.81"><defs><style>.cls-1{fill:#f0f0f0;}.cls-2{fill:#f29600;}.cls-3{fill:#150301;}</style></defs><title>app_mark</title><rect class="cls-1" width="151.81" height="151.81" rx="32.91"/><path class="cls-2" d="M58,18.43,63.33,29.7a37.31,37.31,0,0,1,3.47-1.44L62.62,16.49A50,50,0,0,0,58,18.43Z" transform="translate(-4.25 -3.5)"/><path class="cls-2" d="M76.46,13.74l.64,12.48a36.48,36.48,0,0,1,3.77,0l.63-12.47C79.84,13.66,78.13,13.66,76.46,13.74Z" transform="translate(-4.25 -3.5)"/><path class="cls-2" d="M42.66,29.84l9.27,8.37a35.26,35.26,0,0,1,2.67-2.66l-8.37-9.28A50.1,50.1,0,0,0,42.66,29.84Z" transform="translate(-4.25 -3.5)"/><path class="cls-2" d="M32.87,46.24l11.77,4.18a36.39,36.39,0,0,1,1.44-3.48L34.81,41.56A49,49,0,0,0,32.87,46.24Z" transform="translate(-4.25 -3.5)"/><path class="cls-2" d="M123.19,41.5l-11.27,5.4a37.4,37.4,0,0,1,1.45,3.47l11.76-4.2A50,50,0,0,0,123.19,41.5Z" transform="translate(-4.25 -3.5)"/><path class="cls-2" d="M111.75,26.23l-8.35,9.29a35.26,35.26,0,0,1,2.67,2.66l9.26-8.38C114.2,28.56,113,27.36,111.75,26.23Z" transform="translate(-4.25 -3.5)"/><path class="cls-2" d="M91.18,28.24a36.39,36.39,0,0,1,3.48,1.44L100,18.4a49,49,0,0,0-4.68-1.93Z" transform="translate(-4.25 -3.5)"/><path class="cls-2" d="M42.59,60.71l-12.47-.63c0,.85-.06,1.7-.06,2.56h0c0,.83,0,1.66.06,2.48l12.48-.63A36.67,36.67,0,0,1,42.59,60.71Z" transform="translate(-4.25 -3.5)"/><path class="cls-2" d="M127.91,60.08l-12.47.63h0c0,.64,0,1.27,0,1.92h0c0,.61,0,1.23,0,1.85l12.48.63C128,63.45,128,61.74,127.91,60.08Z" transform="translate(-4.25 -3.5)"/><rect class="cls-2" x="35" y="81.99" width="79.53" height="38.67" rx="1.26"/><path class="cls-3" d="M117.52,76.12H101V46.07H57V76.12H40.51A10.65,10.65,0,0,0,29.87,86.75V122.9a10.65,10.65,0,0,0,10.64,10.64h3.28a4.62,4.62,0,0,0,9.24,0h52a4.62,4.62,0,0,0,9.21,0h3.3a10.65,10.65,0,0,0,10.63-10.64V86.75A10.64,10.64,0,0,0,117.52,76.12ZM66.31,55.38H91.72V76.12H66.31Zm0,68.77V85.49H91.72v38.66ZM39.25,122.9V86.75a1.27,1.27,0,0,1,1.26-1.26H57v38.66H40.51A1.26,1.26,0,0,1,39.25,122.9Zm79.53,0a1.26,1.26,0,0,1-1.26,1.26H101V85.49h16.49a1.27,1.27,0,0,1,1.26,1.26Z" transform="translate(-4.25 -3.5)"/></svg>