<svg id="レイヤー_1" data-name="レイヤー 1" xmlns="http://www.w3.org/2000/svg" viewBox="0 0 66.76 95.4"><defs><style>.cls-1{fill:#f29600;}.cls-1,.cls-2,.cls-3{stroke:#000;}.cls-1,.cls-2,.cls-3,.cls-5{stroke-miterlimit:10;stroke-width:4px;}.cls-2,.cls-3{fill:none;}.cls-2{stroke-linecap:round;}.cls-4,.cls-5{fill:#fff;}.cls-5{stroke:#231815;}</style></defs><title>icon_onetouch</title><rect class="cls-1" x="2" y="14.22" width="53.76" height="52.28"/><rect class="cls-2" x="2" y="2" width="53.76" height="79.98" rx="5"/><line class="cls-3" x1="21.78" y1="8.17" x2="35.73" y2="8.17"/><path class="cls-4" d="M34.77,32,39,40.86a27.28,27.28,0,0,1,2.74-1.14l-3.3-9.3C37.21,30.87,36,31.38,34.77,32Z" transform="translate(-18.24 -4.6)"/><path class="cls-4" d="M49.39,28.25l.5,9.85a29.62,29.62,0,0,1,3,0l.5-9.85C52.06,28.18,50.71,28.19,49.39,28.25Z" transform="translate(-18.24 -4.6)"/><path class="cls-4" d="M61,39.7c.93.33,1.86.72,2.75,1.14L68,31.93a38.33,38.33,0,0,0-3.7-1.52Z" transform="translate(-18.24 -4.6)"/><path class="cls-5" d="M78,62H56V45H46V82.29l-7-7-7.9,8L45.74,98H78a5,5,0,0,0,5-5V67A5,5,0,0,0,78,62Z" transform="translate(-18.24 -4.6)"/></svg>