<svg id="レイヤー_1" data-name="レイヤー 1" xmlns="http://www.w3.org/2000/svg" viewBox="0 0 81.67 81.67"><defs><style>.cls-1{fill:none;}.cls-1,.cls-2{stroke:#000;stroke-miterlimit:10;stroke-width:4px;}.cls-2,.cls-3{fill:#f29600;}</style></defs><title>icon_graph</title><path class="cls-1" d="M96.93,95.33H22.26a5,5,0,0,1-5-5V15.66" transform="translate(-15.26 -15.66)"/><rect class="cls-2" x="58.83" y="22.97" width="11" height="56.7"/><rect class="cls-1" x="36.34" y="33.97" width="11" height="45.7"/><rect class="cls-1" x="13.33" y="45.97" width="11" height="33.7"/><path class="cls-3" d="M63,23.4l4.25,8.9c.89-.42,1.81-.81,2.74-1.14l-3.3-9.29A38.23,38.23,0,0,0,63,23.4Z" transform="translate(-15.26 -15.66)"/><path class="cls-3" d="M77.59,19.7l.51,9.85a29.62,29.62,0,0,1,3,0l.5-9.85A37.93,37.93,0,0,0,77.59,19.7Z" transform="translate(-15.26 -15.66)"/><path class="cls-3" d="M89.22,31.15A28.46,28.46,0,0,1,92,32.29l4.24-8.91c-1.21-.57-2.45-1.08-3.7-1.53Z" transform="translate(-15.26 -15.66)"/></svg>