<svg id="レイヤー_1" data-name="レイヤー 1" xmlns="http://www.w3.org/2000/svg" viewBox="0 0 82.3 101.4"><defs><style>.cls-1{fill:#f29600;}.cls-2,.cls-3{fill:none;stroke:#000;stroke-miterlimit:10;stroke-width:4px;}.cls-2{stroke-linecap:round;}</style></defs><title>icon_click</title><rect class="cls-1" x="20.3" y="20.09" width="30" height="27"/><path class="cls-2" d="M31,49V68.24c0,18.19,13.63,33.07,30,33.07S91,86.43,91,68.24V49Z" transform="translate(-10.7 -1.91)"/><line class="cls-3" x1="50.3" y1="47.09" x2="50.3" y2="20.09"/><path class="cls-3" d="M31,49V27a5,5,0,0,1,5-5H86a5,5,0,0,1,5,5V49" transform="translate(-10.7 -1.91)"/><path class="cls-1" d="M29.53,3.59l4.62,8.72c.88-.46,1.78-.89,2.7-1.26l-3.7-9.14A39.61,39.61,0,0,0,29.53,3.59Z" transform="translate(-10.7 -1.91)"/><path class="cls-1" d="M17.84,13.12l7.6,6.28c.63-.76,1.31-1.5,2-2.19l-6.91-7A37.76,37.76,0,0,0,17.84,13.12Z" transform="translate(-10.7 -1.91)"/><path class="cls-1" d="M21.15,26.48l-9.09-3.83c-.26.61-.51,1.24-.74,1.88h0c-.22.61-.43,1.24-.62,1.86l9.43,2.9A27.69,27.69,0,0,1,21.15,26.48Z" transform="translate(-10.7 -1.91)"/></svg>